<svg width="800" height="480" viewBox="0 0 800 480" fill="none" xmlns="http://www.w3.org/2000/svg">
<rect width="800" height="480" fill="white"/>
<path d="M153.542 227.297V260H146.826V227.297H153.542ZM163.604 227.297V232.575H136.921V227.297H163.604ZM172.813 253.711L177.867 235.697H181.978L180.652 242.772L175.599 260H172.162L172.813 253.711ZM170.253 235.697L173.869 253.688L174.206 260H170.163L164.009 235.697H170.253ZM186.604 253.396L190.131 235.697H196.397L190.243 260H186.223L186.604 253.396ZM182.539 235.697L187.57 253.576L188.267 260H184.808L179.754 242.795L178.474 235.697H182.539ZM206.482 235.697V260H199.991V235.697H206.482ZM199.587 229.363C199.587 228.42 199.916 227.641 200.575 227.027C201.234 226.413 202.118 226.106 203.226 226.106C204.319 226.106 205.195 226.413 205.854 227.027C206.527 227.641 206.864 228.42 206.864 229.363C206.864 230.307 206.527 231.085 205.854 231.699C205.195 232.313 204.319 232.62 203.226 232.62C202.118 232.62 201.234 232.313 200.575 231.699C199.916 231.085 199.587 230.307 199.587 229.363ZM223.732 235.697V240.279H209.582V235.697H223.732ZM213.086 229.7H219.555V252.678C219.555 253.382 219.645 253.921 219.824 254.295C220.019 254.669 220.303 254.931 220.678 255.081C221.052 255.216 221.524 255.283 222.093 255.283C222.497 255.283 222.856 255.268 223.171 255.238C223.5 255.193 223.777 255.148 224.002 255.104L224.024 259.865C223.47 260.045 222.871 260.187 222.228 260.292C221.584 260.397 220.872 260.449 220.094 260.449C218.671 260.449 217.428 260.217 216.365 259.753C215.317 259.274 214.508 258.51 213.939 257.462C213.37 256.414 213.086 255.036 213.086 253.329V229.7ZM239.32 235.697V240.279H225.17V235.697H239.32ZM228.674 229.7H235.143V252.678C235.143 253.382 235.232 253.921 235.412 254.295C235.607 254.669 235.891 254.931 236.266 255.081C236.64 255.216 237.112 255.283 237.681 255.283C238.085 255.283 238.444 255.268 238.759 255.238C239.088 255.193 239.365 255.148 239.59 255.104L239.612 259.865C239.058 260.045 238.459 260.187 237.815 260.292C237.172 260.397 236.46 260.449 235.682 260.449C234.259 260.449 233.016 260.217 231.953 259.753C230.905 259.274 230.096 258.51 229.527 257.462C228.958 256.414 228.674 255.036 228.674 253.329V229.7ZM254.189 260.449C252.303 260.449 250.611 260.15 249.113 259.551C247.616 258.937 246.343 258.091 245.295 257.013C244.262 255.935 243.468 254.684 242.914 253.262C242.36 251.824 242.083 250.297 242.083 248.68V247.781C242.083 245.939 242.345 244.255 242.869 242.728C243.393 241.2 244.142 239.875 245.115 238.752C246.104 237.629 247.301 236.768 248.709 236.169C250.117 235.555 251.704 235.248 253.471 235.248C255.193 235.248 256.72 235.533 258.053 236.102C259.385 236.671 260.501 237.479 261.399 238.527C262.313 239.576 263.002 240.833 263.466 242.301C263.93 243.753 264.162 245.37 264.162 247.152V249.848H244.846V245.535H257.806V245.041C257.806 244.143 257.641 243.341 257.312 242.638C256.997 241.919 256.518 241.35 255.874 240.931C255.23 240.511 254.407 240.302 253.403 240.302C252.55 240.302 251.816 240.489 251.202 240.863C250.588 241.238 250.087 241.762 249.697 242.436C249.323 243.109 249.038 243.903 248.844 244.816C248.664 245.715 248.574 246.703 248.574 247.781V248.68C248.574 249.653 248.709 250.551 248.979 251.375C249.263 252.199 249.66 252.91 250.169 253.509C250.693 254.108 251.322 254.572 252.056 254.901C252.804 255.231 253.65 255.396 254.594 255.396C255.762 255.396 256.847 255.171 257.851 254.722C258.869 254.257 259.745 253.561 260.479 252.633L263.623 256.047C263.114 256.781 262.418 257.484 261.534 258.158C260.666 258.832 259.618 259.386 258.39 259.82C257.162 260.24 255.762 260.449 254.189 260.449ZM274.314 240.998V260H267.846V235.697H273.933L274.314 240.998ZM281.637 235.54L281.524 241.537C281.21 241.492 280.828 241.455 280.379 241.425C279.945 241.38 279.548 241.357 279.188 241.357C278.275 241.357 277.481 241.477 276.808 241.717C276.149 241.941 275.595 242.278 275.146 242.728C274.711 243.177 274.382 243.723 274.157 244.367C273.948 245.011 273.828 245.745 273.798 246.568L272.495 246.164C272.495 244.592 272.652 243.147 272.967 241.829C273.281 240.496 273.738 239.336 274.337 238.348C274.951 237.359 275.7 236.596 276.583 236.057C277.466 235.518 278.477 235.248 279.615 235.248C279.975 235.248 280.341 235.278 280.716 235.338C281.09 235.383 281.397 235.45 281.637 235.54ZM302.975 235.697V260H296.483V235.697H302.975ZM296.079 229.363C296.079 228.42 296.409 227.641 297.067 227.027C297.726 226.413 298.61 226.106 299.718 226.106C300.811 226.106 301.687 226.413 302.346 227.027C303.02 227.641 303.356 228.42 303.356 229.363C303.356 230.307 303.02 231.085 302.346 231.699C301.687 232.313 300.811 232.62 299.718 232.62C298.61 232.62 297.726 232.313 297.067 231.699C296.409 231.085 296.079 230.307 296.079 229.363ZM314.654 240.886V260H308.186V235.697H314.25L314.654 240.886ZM313.711 246.995H311.959C311.959 245.198 312.191 243.581 312.655 242.144C313.119 240.691 313.771 239.456 314.609 238.438C315.448 237.404 316.444 236.618 317.597 236.079C318.765 235.525 320.067 235.248 321.505 235.248C322.643 235.248 323.684 235.413 324.627 235.742C325.57 236.072 326.379 236.596 327.053 237.314C327.742 238.033 328.266 238.984 328.625 240.167C328.999 241.35 329.187 242.795 329.187 244.502V260H322.673V244.479C322.673 243.401 322.523 242.563 322.224 241.964C321.924 241.365 321.482 240.946 320.898 240.706C320.329 240.451 319.626 240.324 318.787 240.324C317.919 240.324 317.162 240.496 316.519 240.841C315.89 241.185 315.366 241.664 314.946 242.278C314.542 242.877 314.235 243.581 314.025 244.39C313.816 245.198 313.711 246.067 313.711 246.995ZM347.245 253.284C347.245 252.82 347.11 252.401 346.841 252.026C346.571 251.652 346.07 251.308 345.336 250.993C344.617 250.664 343.576 250.364 342.214 250.095C340.986 249.825 339.84 249.488 338.777 249.084C337.729 248.665 336.816 248.163 336.037 247.579C335.273 246.995 334.674 246.306 334.24 245.513C333.806 244.704 333.589 243.783 333.589 242.75C333.589 241.732 333.806 240.773 334.24 239.875C334.689 238.977 335.326 238.183 336.149 237.494C336.988 236.79 338.006 236.244 339.204 235.854C340.417 235.45 341.78 235.248 343.292 235.248C345.403 235.248 347.215 235.585 348.728 236.259C350.255 236.933 351.423 237.861 352.231 239.044C353.055 240.212 353.467 241.545 353.467 243.042H346.998C346.998 242.413 346.863 241.852 346.594 241.357C346.339 240.848 345.935 240.451 345.381 240.167C344.842 239.868 344.138 239.718 343.27 239.718C342.551 239.718 341.929 239.845 341.405 240.1C340.881 240.339 340.477 240.669 340.192 241.088C339.923 241.492 339.788 241.941 339.788 242.436C339.788 242.81 339.863 243.147 340.013 243.446C340.177 243.731 340.439 243.993 340.799 244.232C341.158 244.472 341.622 244.697 342.191 244.906C342.775 245.101 343.494 245.281 344.348 245.445C346.1 245.805 347.664 246.276 349.042 246.86C350.42 247.429 351.513 248.208 352.321 249.196C353.13 250.17 353.534 251.45 353.534 253.037C353.534 254.115 353.295 255.104 352.815 256.002C352.336 256.9 351.647 257.687 350.749 258.36C349.851 259.019 348.772 259.536 347.515 259.91C346.272 260.27 344.872 260.449 343.314 260.449C341.053 260.449 339.137 260.045 337.564 259.236C336.007 258.428 334.824 257.402 334.016 256.159C333.222 254.901 332.825 253.614 332.825 252.296H338.957C338.987 253.179 339.212 253.891 339.631 254.43C340.065 254.969 340.612 255.358 341.271 255.598C341.944 255.837 342.671 255.957 343.449 255.957C344.288 255.957 344.984 255.845 345.538 255.62C346.092 255.381 346.511 255.066 346.796 254.677C347.095 254.272 347.245 253.808 347.245 253.284ZM364.203 240.369V269.344H357.734V235.697H363.731L364.203 240.369ZM379.589 247.579V248.051C379.589 249.818 379.379 251.457 378.96 252.97C378.556 254.482 377.957 255.8 377.163 256.923C376.369 258.031 375.381 258.899 374.198 259.528C373.03 260.142 371.683 260.449 370.155 260.449C368.673 260.449 367.385 260.15 366.292 259.551C365.199 258.952 364.278 258.113 363.529 257.035C362.796 255.942 362.204 254.677 361.755 253.239C361.306 251.802 360.961 250.259 360.722 248.612V247.377C360.961 245.61 361.306 243.993 361.755 242.525C362.204 241.043 362.796 239.763 363.529 238.685C364.278 237.591 365.191 236.745 366.27 236.146C367.363 235.548 368.643 235.248 370.11 235.248C371.653 235.248 373.008 235.54 374.176 236.124C375.359 236.708 376.347 237.547 377.141 238.64C377.949 239.733 378.556 241.035 378.96 242.548C379.379 244.06 379.589 245.737 379.589 247.579ZM373.098 248.051V247.579C373.098 246.546 373.008 245.595 372.828 244.727C372.663 243.843 372.394 243.072 372.02 242.413C371.66 241.754 371.181 241.245 370.582 240.886C369.998 240.511 369.287 240.324 368.448 240.324C367.565 240.324 366.809 240.466 366.18 240.751C365.566 241.035 365.064 241.447 364.675 241.986C364.285 242.525 363.993 243.169 363.799 243.918C363.604 244.667 363.484 245.513 363.439 246.456V249.578C363.514 250.686 363.724 251.682 364.068 252.565C364.413 253.434 364.944 254.123 365.663 254.632C366.382 255.141 367.325 255.396 368.493 255.396C369.347 255.396 370.065 255.208 370.649 254.834C371.233 254.445 371.705 253.913 372.064 253.239C372.439 252.565 372.701 251.787 372.851 250.903C373.015 250.02 373.098 249.069 373.098 248.051ZM390.438 235.697V260H383.946V235.697H390.438ZM383.542 229.363C383.542 228.42 383.871 227.641 384.53 227.027C385.189 226.413 386.073 226.106 387.181 226.106C388.274 226.106 389.15 226.413 389.809 227.027C390.482 227.641 390.819 228.42 390.819 229.363C390.819 230.307 390.482 231.085 389.809 231.699C389.15 232.313 388.274 232.62 387.181 232.62C386.073 232.62 385.189 232.313 384.53 231.699C383.871 231.085 383.542 230.307 383.542 229.363ZM402.252 240.998V260H395.783V235.697H401.87L402.252 240.998ZM409.574 235.54L409.462 241.537C409.147 241.492 408.766 241.455 408.316 241.425C407.882 241.38 407.485 241.357 407.126 241.357C406.213 241.357 405.419 241.477 404.745 241.717C404.086 241.941 403.532 242.278 403.083 242.728C402.649 243.177 402.319 243.723 402.095 244.367C401.885 245.011 401.765 245.745 401.735 246.568L400.433 246.164C400.433 244.592 400.59 243.147 400.904 241.829C401.219 240.496 401.675 239.336 402.274 238.348C402.888 237.359 403.637 236.596 404.521 236.057C405.404 235.518 406.415 235.248 407.553 235.248C407.912 235.248 408.279 235.278 408.653 235.338C409.028 235.383 409.335 235.45 409.574 235.54ZM423.365 260.449C421.479 260.449 419.786 260.15 418.289 259.551C416.792 258.937 415.519 258.091 414.471 257.013C413.438 255.935 412.644 254.684 412.09 253.262C411.536 251.824 411.259 250.297 411.259 248.68V247.781C411.259 245.939 411.521 244.255 412.045 242.728C412.569 241.2 413.318 239.875 414.291 238.752C415.279 237.629 416.477 236.768 417.885 236.169C419.292 235.555 420.88 235.248 422.646 235.248C424.368 235.248 425.896 235.533 427.229 236.102C428.561 236.671 429.677 237.479 430.575 238.527C431.489 239.576 432.177 240.833 432.642 242.301C433.106 243.753 433.338 245.37 433.338 247.152V249.848H414.021V245.535H426.981V245.041C426.981 244.143 426.817 243.341 426.487 242.638C426.173 241.919 425.694 241.35 425.05 240.931C424.406 240.511 423.582 240.302 422.579 240.302C421.726 240.302 420.992 240.489 420.378 240.863C419.764 241.238 419.262 241.762 418.873 242.436C418.499 243.109 418.214 243.903 418.02 244.816C417.84 245.715 417.75 246.703 417.75 247.781V248.68C417.75 249.653 417.885 250.551 418.154 251.375C418.439 252.199 418.836 252.91 419.345 253.509C419.869 254.108 420.498 254.572 421.231 254.901C421.98 255.231 422.826 255.396 423.77 255.396C424.938 255.396 426.023 255.171 427.026 254.722C428.045 254.257 428.921 253.561 429.654 252.633L432.799 256.047C432.29 256.781 431.593 257.484 430.71 258.158C429.841 258.832 428.793 259.386 427.565 259.82C426.338 260.24 424.938 260.449 423.365 260.449ZM451.374 254.699V225.5H457.888V260H452.025L451.374 254.699ZM436.011 248.141V247.669C436.011 245.812 436.22 244.128 436.64 242.615C437.059 241.088 437.673 239.778 438.481 238.685C439.29 237.591 440.286 236.745 441.469 236.146C442.652 235.548 443.999 235.248 445.512 235.248C446.934 235.248 448.177 235.548 449.24 236.146C450.318 236.745 451.232 237.599 451.98 238.707C452.744 239.8 453.358 241.095 453.822 242.593C454.286 244.075 454.623 245.7 454.833 247.467V248.5C454.623 250.192 454.286 251.764 453.822 253.217C453.358 254.669 452.744 255.942 451.98 257.035C451.232 258.113 450.318 258.952 449.24 259.551C448.162 260.15 446.904 260.449 445.467 260.449C443.954 260.449 442.607 260.142 441.424 259.528C440.256 258.914 439.268 258.053 438.459 256.945C437.665 255.837 437.059 254.535 436.64 253.037C436.22 251.54 436.011 249.908 436.011 248.141ZM442.479 247.669V248.141C442.479 249.144 442.554 250.08 442.704 250.948C442.869 251.817 443.131 252.588 443.49 253.262C443.865 253.921 444.344 254.437 444.928 254.812C445.527 255.171 446.253 255.351 447.106 255.351C448.215 255.351 449.128 255.104 449.847 254.609C450.565 254.1 451.112 253.404 451.486 252.521C451.876 251.637 452.1 250.619 452.16 249.466V246.523C452.115 245.58 451.98 244.734 451.756 243.985C451.546 243.222 451.232 242.57 450.812 242.031C450.408 241.492 449.899 241.073 449.285 240.773C448.686 240.474 447.975 240.324 447.151 240.324C446.313 240.324 445.594 240.519 444.995 240.908C444.396 241.283 443.91 241.799 443.535 242.458C443.176 243.117 442.906 243.896 442.727 244.794C442.562 245.677 442.479 246.636 442.479 247.669ZM148.96 314H141.84L141.885 308.744H148.96C150.727 308.744 152.217 308.347 153.43 307.554C154.643 306.745 155.556 305.57 156.17 304.027C156.799 302.485 157.113 300.621 157.113 298.435V296.84C157.113 295.163 156.934 293.688 156.574 292.415C156.23 291.142 155.713 290.072 155.024 289.203C154.336 288.335 153.49 287.683 152.486 287.249C151.483 286.8 150.33 286.575 149.027 286.575H141.705V281.297H149.027C151.214 281.297 153.213 281.671 155.024 282.42C156.851 283.154 158.431 284.209 159.764 285.587C161.096 286.965 162.122 288.612 162.841 290.528C163.575 292.43 163.941 294.549 163.941 296.885V298.435C163.941 300.756 163.575 302.874 162.841 304.791C162.122 306.708 161.096 308.355 159.764 309.732C158.446 311.095 156.866 312.151 155.024 312.899C153.198 313.633 151.176 314 148.96 314ZM145.658 281.297V314H138.92V281.297H145.658ZM179.619 314.449C177.732 314.449 176.04 314.15 174.543 313.551C173.046 312.937 171.773 312.091 170.725 311.013C169.691 309.935 168.898 308.684 168.344 307.262C167.79 305.824 167.513 304.297 167.513 302.68V301.781C167.513 299.939 167.775 298.255 168.299 296.728C168.823 295.2 169.572 293.875 170.545 292.752C171.533 291.629 172.731 290.768 174.139 290.169C175.546 289.555 177.133 289.248 178.9 289.248C180.622 289.248 182.15 289.533 183.482 290.102C184.815 290.671 185.931 291.479 186.829 292.527C187.743 293.576 188.431 294.833 188.896 296.301C189.36 297.753 189.592 299.37 189.592 301.152V303.848H170.275V299.535H183.235V299.041C183.235 298.143 183.071 297.341 182.741 296.638C182.427 295.919 181.948 295.35 181.304 294.931C180.66 294.511 179.836 294.302 178.833 294.302C177.979 294.302 177.246 294.489 176.632 294.863C176.018 295.238 175.516 295.762 175.127 296.436C174.753 297.109 174.468 297.903 174.273 298.816C174.094 299.715 174.004 300.703 174.004 301.781V302.68C174.004 303.653 174.139 304.551 174.408 305.375C174.693 306.199 175.09 306.91 175.599 307.509C176.123 308.108 176.752 308.572 177.485 308.901C178.234 309.231 179.08 309.396 180.023 309.396C181.191 309.396 182.277 309.171 183.28 308.722C184.299 308.257 185.174 307.561 185.908 306.633L189.053 310.047C188.544 310.781 187.847 311.484 186.964 312.158C186.095 312.832 185.047 313.386 183.819 313.82C182.591 314.24 181.191 314.449 179.619 314.449ZM206.415 307.284C206.415 306.82 206.28 306.401 206.011 306.026C205.741 305.652 205.24 305.308 204.506 304.993C203.787 304.664 202.746 304.364 201.384 304.095C200.156 303.825 199.01 303.488 197.947 303.084C196.899 302.665 195.986 302.163 195.207 301.579C194.443 300.995 193.844 300.306 193.41 299.513C192.976 298.704 192.759 297.783 192.759 296.75C192.759 295.732 192.976 294.773 193.41 293.875C193.859 292.977 194.496 292.183 195.319 291.494C196.158 290.79 197.176 290.244 198.374 289.854C199.587 289.45 200.95 289.248 202.462 289.248C204.573 289.248 206.385 289.585 207.897 290.259C209.425 290.933 210.593 291.861 211.401 293.044C212.225 294.212 212.637 295.545 212.637 297.042H206.168C206.168 296.413 206.033 295.852 205.764 295.357C205.509 294.848 205.105 294.451 204.551 294.167C204.012 293.868 203.308 293.718 202.439 293.718C201.721 293.718 201.099 293.845 200.575 294.1C200.051 294.339 199.647 294.669 199.362 295.088C199.093 295.492 198.958 295.941 198.958 296.436C198.958 296.81 199.033 297.147 199.183 297.446C199.347 297.731 199.609 297.993 199.969 298.232C200.328 298.472 200.792 298.697 201.361 298.906C201.945 299.101 202.664 299.281 203.518 299.445C205.27 299.805 206.834 300.276 208.212 300.86C209.59 301.429 210.683 302.208 211.491 303.196C212.3 304.17 212.704 305.45 212.704 307.037C212.704 308.115 212.465 309.104 211.985 310.002C211.506 310.9 210.817 311.687 209.919 312.36C209.021 313.019 207.942 313.536 206.685 313.91C205.442 314.27 204.042 314.449 202.484 314.449C200.223 314.449 198.307 314.045 196.734 313.236C195.177 312.428 193.994 311.402 193.186 310.159C192.392 308.901 191.995 307.614 191.995 306.296H198.127C198.157 307.179 198.382 307.891 198.801 308.43C199.235 308.969 199.782 309.358 200.44 309.598C201.114 309.837 201.84 309.957 202.619 309.957C203.458 309.957 204.154 309.845 204.708 309.62C205.262 309.381 205.681 309.066 205.966 308.677C206.265 308.272 206.415 307.808 206.415 307.284ZM223.732 289.697V314H217.241V289.697H223.732ZM216.837 283.363C216.837 282.42 217.166 281.641 217.825 281.027C218.484 280.413 219.368 280.106 220.476 280.106C221.569 280.106 222.445 280.413 223.104 281.027C223.777 281.641 224.114 282.42 224.114 283.363C224.114 284.307 223.777 285.085 223.104 285.699C222.445 286.313 221.569 286.62 220.476 286.62C219.368 286.62 218.484 286.313 217.825 285.699C217.166 285.085 216.837 284.307 216.837 283.363ZM244.464 289.697H250.326V313.191C250.326 315.408 249.832 317.287 248.844 318.829C247.87 320.386 246.508 321.562 244.756 322.355C243.004 323.164 240.967 323.568 238.646 323.568C237.628 323.568 236.55 323.434 235.412 323.164C234.289 322.895 233.211 322.475 232.178 321.906C231.16 321.337 230.306 320.618 229.617 319.75L232.47 315.932C233.218 316.8 234.087 317.474 235.075 317.953C236.063 318.447 237.157 318.694 238.354 318.694C239.522 318.694 240.511 318.477 241.319 318.043C242.128 317.624 242.749 317.002 243.184 316.179C243.618 315.37 243.835 314.389 243.835 313.236V295.312L244.464 289.697ZM228.112 302.141V301.669C228.112 299.812 228.337 298.128 228.786 296.615C229.25 295.088 229.902 293.778 230.74 292.685C231.594 291.591 232.627 290.745 233.84 290.146C235.053 289.548 236.423 289.248 237.95 289.248C239.567 289.248 240.923 289.548 242.016 290.146C243.109 290.745 244.007 291.599 244.711 292.707C245.415 293.8 245.961 295.095 246.351 296.593C246.755 298.075 247.069 299.7 247.294 301.467V302.5C247.069 304.192 246.732 305.764 246.283 307.217C245.834 308.669 245.243 309.942 244.509 311.035C243.775 312.113 242.862 312.952 241.769 313.551C240.69 314.15 239.403 314.449 237.905 314.449C236.408 314.449 235.053 314.142 233.84 313.528C232.642 312.914 231.616 312.053 230.763 310.945C229.909 309.837 229.25 308.535 228.786 307.037C228.337 305.54 228.112 303.908 228.112 302.141ZM234.581 301.669V302.141C234.581 303.144 234.678 304.08 234.873 304.948C235.068 305.817 235.367 306.588 235.771 307.262C236.191 307.921 236.707 308.437 237.321 308.812C237.95 309.171 238.691 309.351 239.545 309.351C240.728 309.351 241.694 309.104 242.442 308.609C243.191 308.1 243.753 307.404 244.127 306.521C244.501 305.637 244.718 304.619 244.778 303.466V300.523C244.748 299.58 244.621 298.734 244.396 297.985C244.172 297.222 243.857 296.57 243.453 296.031C243.049 295.492 242.525 295.073 241.881 294.773C241.237 294.474 240.473 294.324 239.59 294.324C238.736 294.324 237.995 294.519 237.366 294.908C236.752 295.283 236.236 295.799 235.816 296.458C235.412 297.117 235.105 297.896 234.896 298.794C234.686 299.677 234.581 300.636 234.581 301.669ZM261.691 294.886V314H255.223V289.697H261.287L261.691 294.886ZM260.748 300.995H258.996C258.996 299.198 259.228 297.581 259.692 296.144C260.157 294.691 260.808 293.456 261.646 292.438C262.485 291.404 263.481 290.618 264.634 290.079C265.802 289.525 267.104 289.248 268.542 289.248C269.68 289.248 270.721 289.413 271.664 289.742C272.607 290.072 273.416 290.596 274.09 291.314C274.779 292.033 275.303 292.984 275.662 294.167C276.036 295.35 276.224 296.795 276.224 298.502V314H269.71V298.479C269.71 297.401 269.56 296.563 269.261 295.964C268.961 295.365 268.52 294.946 267.936 294.706C267.367 294.451 266.663 294.324 265.824 294.324C264.956 294.324 264.2 294.496 263.556 294.841C262.927 295.185 262.403 295.664 261.983 296.278C261.579 296.877 261.272 297.581 261.062 298.39C260.853 299.198 260.748 300.067 260.748 300.995ZM310.027 305.442C310.027 304.858 309.938 304.334 309.758 303.87C309.593 303.391 309.279 302.957 308.814 302.567C308.35 302.163 307.699 301.766 306.86 301.377C306.022 300.988 304.936 300.583 303.604 300.164C302.121 299.685 300.714 299.146 299.381 298.547C298.063 297.948 296.895 297.252 295.877 296.458C294.874 295.649 294.08 294.714 293.496 293.65C292.927 292.587 292.643 291.352 292.643 289.944C292.643 288.582 292.942 287.346 293.541 286.238C294.14 285.115 294.979 284.157 296.057 283.363C297.135 282.555 298.408 281.933 299.875 281.499C301.357 281.065 302.982 280.848 304.749 280.848C307.16 280.848 309.264 281.282 311.061 282.15C312.857 283.019 314.25 284.209 315.238 285.722C316.242 287.234 316.743 288.964 316.743 290.91H310.05C310.05 289.952 309.848 289.113 309.443 288.395C309.054 287.661 308.455 287.084 307.646 286.665C306.853 286.246 305.85 286.036 304.637 286.036C303.469 286.036 302.495 286.216 301.717 286.575C300.938 286.92 300.354 287.391 299.965 287.99C299.576 288.574 299.381 289.233 299.381 289.967C299.381 290.521 299.516 291.022 299.785 291.472C300.07 291.921 300.489 292.34 301.043 292.729C301.597 293.119 302.278 293.486 303.087 293.83C303.896 294.174 304.831 294.511 305.895 294.841C307.676 295.38 309.241 295.986 310.589 296.66C311.951 297.334 313.09 298.09 314.003 298.929C314.916 299.767 315.605 300.718 316.069 301.781C316.534 302.844 316.766 304.05 316.766 305.397C316.766 306.82 316.489 308.093 315.935 309.216C315.381 310.339 314.579 311.29 313.531 312.068C312.483 312.847 311.233 313.438 309.78 313.843C308.328 314.247 306.703 314.449 304.906 314.449C303.289 314.449 301.694 314.24 300.122 313.82C298.55 313.386 297.12 312.735 295.832 311.866C294.559 310.998 293.541 309.89 292.777 308.542C292.014 307.194 291.632 305.6 291.632 303.758H298.393C298.393 304.776 298.55 305.637 298.864 306.341C299.179 307.045 299.62 307.614 300.189 308.048C300.773 308.482 301.462 308.797 302.256 308.991C303.064 309.186 303.948 309.283 304.906 309.283C306.074 309.283 307.033 309.118 307.781 308.789C308.545 308.46 309.106 308.003 309.466 307.419C309.84 306.835 310.027 306.176 310.027 305.442ZM328.153 311.26L334.6 289.697H341.54L331.77 317.661C331.56 318.275 331.275 318.934 330.916 319.638C330.572 320.341 330.1 321.008 329.501 321.637C328.917 322.281 328.176 322.805 327.277 323.209C326.394 323.613 325.308 323.815 324.021 323.815C323.407 323.815 322.905 323.778 322.516 323.703C322.126 323.628 321.662 323.523 321.123 323.389V318.649C321.288 318.649 321.46 318.649 321.64 318.649C321.819 318.664 321.992 318.672 322.156 318.672C323.01 318.672 323.706 318.575 324.245 318.38C324.784 318.185 325.218 317.886 325.548 317.481C325.877 317.092 326.139 316.583 326.334 315.954L328.153 311.26ZM325.458 289.697L330.736 307.307L331.657 314.157L327.255 314.629L318.518 289.697H325.458ZM357.263 307.284C357.263 306.82 357.128 306.401 356.858 306.026C356.589 305.652 356.087 305.308 355.354 304.993C354.635 304.664 353.594 304.364 352.231 304.095C351.004 303.825 349.858 303.488 348.795 303.084C347.747 302.665 346.833 302.163 346.055 301.579C345.291 300.995 344.692 300.306 344.258 299.513C343.824 298.704 343.606 297.783 343.606 296.75C343.606 295.732 343.824 294.773 344.258 293.875C344.707 292.977 345.343 292.183 346.167 291.494C347.006 290.79 348.024 290.244 349.222 289.854C350.435 289.45 351.797 289.248 353.31 289.248C355.421 289.248 357.233 289.585 358.745 290.259C360.272 290.933 361.44 291.861 362.249 293.044C363.073 294.212 363.484 295.545 363.484 297.042H357.016C357.016 296.413 356.881 295.852 356.611 295.357C356.357 294.848 355.952 294.451 355.398 294.167C354.859 293.868 354.156 293.718 353.287 293.718C352.568 293.718 351.947 293.845 351.423 294.1C350.899 294.339 350.494 294.669 350.21 295.088C349.94 295.492 349.806 295.941 349.806 296.436C349.806 296.81 349.881 297.147 350.03 297.446C350.195 297.731 350.457 297.993 350.816 298.232C351.176 298.472 351.64 298.697 352.209 298.906C352.793 299.101 353.512 299.281 354.365 299.445C356.117 299.805 357.682 300.276 359.06 300.86C360.437 301.429 361.53 302.208 362.339 303.196C363.147 304.17 363.552 305.45 363.552 307.037C363.552 308.115 363.312 309.104 362.833 310.002C362.354 310.9 361.665 311.687 360.767 312.36C359.868 313.019 358.79 313.536 357.532 313.91C356.289 314.27 354.889 314.449 353.332 314.449C351.071 314.449 349.154 314.045 347.582 313.236C346.025 312.428 344.842 311.402 344.033 310.159C343.24 308.901 342.843 307.614 342.843 306.296H348.975C349.005 307.179 349.229 307.891 349.648 308.43C350.083 308.969 350.629 309.358 351.288 309.598C351.962 309.837 352.688 309.957 353.467 309.957C354.305 309.957 355.002 309.845 355.556 309.62C356.11 309.381 356.529 309.066 356.813 308.677C357.113 308.272 357.263 307.808 357.263 307.284ZM379.656 289.697V294.279H365.506V289.697H379.656ZM369.01 283.7H375.479V306.678C375.479 307.382 375.568 307.921 375.748 308.295C375.943 308.669 376.227 308.931 376.602 309.081C376.976 309.216 377.448 309.283 378.017 309.283C378.421 309.283 378.78 309.268 379.095 309.238C379.424 309.193 379.701 309.148 379.926 309.104L379.948 313.865C379.394 314.045 378.795 314.187 378.151 314.292C377.507 314.397 376.796 314.449 376.018 314.449C374.595 314.449 373.352 314.217 372.289 313.753C371.241 313.274 370.432 312.51 369.863 311.462C369.294 310.414 369.01 309.036 369.01 307.329V283.7ZM394.525 314.449C392.639 314.449 390.947 314.15 389.449 313.551C387.952 312.937 386.679 312.091 385.631 311.013C384.598 309.935 383.804 308.684 383.25 307.262C382.696 305.824 382.419 304.297 382.419 302.68V301.781C382.419 299.939 382.681 298.255 383.205 296.728C383.729 295.2 384.478 293.875 385.451 292.752C386.439 291.629 387.637 290.768 389.045 290.169C390.452 289.555 392.04 289.248 393.807 289.248C395.529 289.248 397.056 289.533 398.389 290.102C399.721 290.671 400.837 291.479 401.735 292.527C402.649 293.576 403.338 294.833 403.802 296.301C404.266 297.753 404.498 299.37 404.498 301.152V303.848H385.182V299.535H398.142V299.041C398.142 298.143 397.977 297.341 397.647 296.638C397.333 295.919 396.854 295.35 396.21 294.931C395.566 294.511 394.743 294.302 393.739 294.302C392.886 294.302 392.152 294.489 391.538 294.863C390.924 295.238 390.423 295.762 390.033 296.436C389.659 297.109 389.374 297.903 389.18 298.816C389 299.715 388.91 300.703 388.91 301.781V302.68C388.91 303.653 389.045 304.551 389.314 305.375C389.599 306.199 389.996 306.91 390.505 307.509C391.029 308.108 391.658 308.572 392.392 308.901C393.14 309.231 393.986 309.396 394.93 309.396C396.098 309.396 397.183 309.171 398.187 308.722C399.205 308.257 400.081 307.561 400.814 306.633L403.959 310.047C403.45 310.781 402.754 311.484 401.87 312.158C401.002 312.832 399.953 313.386 398.726 313.82C397.498 314.24 396.098 314.449 394.525 314.449ZM414.65 294.729V314H408.159V289.697H414.246L414.65 294.729ZM413.752 300.995H411.955C411.955 299.303 412.157 297.746 412.562 296.323C412.981 294.886 413.587 293.643 414.381 292.595C415.189 291.532 416.185 290.708 417.368 290.124C418.551 289.54 419.921 289.248 421.479 289.248C422.557 289.248 423.545 289.413 424.443 289.742C425.342 290.057 426.113 290.558 426.757 291.247C427.416 291.921 427.925 292.804 428.284 293.897C428.644 294.976 428.823 296.271 428.823 297.783V314H422.354V298.502C422.354 297.394 422.205 296.54 421.905 295.941C421.606 295.342 421.179 294.923 420.625 294.684C420.086 294.444 419.435 294.324 418.671 294.324C417.832 294.324 417.099 294.496 416.47 294.841C415.856 295.185 415.347 295.664 414.942 296.278C414.538 296.877 414.239 297.581 414.044 298.39C413.849 299.198 413.752 300.067 413.752 300.995ZM428.217 300.254L425.903 300.546C425.903 298.959 426.098 297.484 426.487 296.121C426.892 294.758 427.483 293.561 428.262 292.527C429.055 291.494 430.036 290.693 431.204 290.124C432.372 289.54 433.72 289.248 435.247 289.248C436.415 289.248 437.478 289.42 438.437 289.765C439.395 290.094 440.211 290.626 440.885 291.359C441.574 292.078 442.098 293.021 442.457 294.189C442.831 295.357 443.019 296.787 443.019 298.479V314H436.527V298.479C436.527 297.356 436.378 296.503 436.078 295.919C435.794 295.32 435.374 294.908 434.82 294.684C434.281 294.444 433.637 294.324 432.889 294.324C432.11 294.324 431.429 294.481 430.845 294.796C430.261 295.095 429.774 295.515 429.385 296.054C428.995 296.593 428.703 297.222 428.509 297.94C428.314 298.644 428.217 299.415 428.217 300.254Z" fill="black"/>
<path d="M144.004 170.426H140.699V177H137.734V159.938H143.734C145.703 159.938 147.223 160.379 148.293 161.262C149.363 162.145 149.898 163.422 149.898 165.094C149.898 166.234 149.621 167.191 149.066 167.965C148.52 168.73 147.754 169.32 146.77 169.734L150.602 176.848V177H147.426L144.004 170.426ZM140.699 168.047H143.746C144.746 168.047 145.527 167.797 146.09 167.297C146.652 166.789 146.934 166.098 146.934 165.223C146.934 164.309 146.672 163.602 146.148 163.102C145.633 162.602 144.859 162.344 143.828 162.328H140.699V168.047ZM158.02 177.234C156.215 177.234 154.75 176.668 153.625 175.535C152.508 174.395 151.949 172.879 151.949 170.988V170.637C151.949 169.371 152.191 168.242 152.676 167.25C153.168 166.25 153.855 165.473 154.738 164.918C155.621 164.363 156.605 164.086 157.691 164.086C159.418 164.086 160.75 164.637 161.688 165.738C162.633 166.84 163.105 168.398 163.105 170.414V171.562H154.82C154.906 172.609 155.254 173.438 155.863 174.047C156.48 174.656 157.254 174.961 158.184 174.961C159.488 174.961 160.551 174.434 161.371 173.379L162.906 174.844C162.398 175.602 161.719 176.191 160.867 176.613C160.023 177.027 159.074 177.234 158.02 177.234ZM157.68 166.371C156.898 166.371 156.266 166.645 155.781 167.191C155.305 167.738 155 168.5 154.867 169.477H160.293V169.266C160.23 168.312 159.977 167.594 159.531 167.109C159.086 166.617 158.469 166.371 157.68 166.371ZM170.852 170.895H164.699V168.598H170.852V170.895ZM178.41 174.961C179.121 174.961 179.711 174.754 180.18 174.34C180.648 173.926 180.898 173.414 180.93 172.805H183.613C183.582 173.594 183.336 174.332 182.875 175.02C182.414 175.699 181.789 176.238 181 176.637C180.211 177.035 179.359 177.234 178.445 177.234C176.672 177.234 175.266 176.66 174.227 175.512C173.188 174.363 172.668 172.777 172.668 170.754V170.461C172.668 168.531 173.184 166.988 174.215 165.832C175.246 164.668 176.652 164.086 178.434 164.086C179.941 164.086 181.168 164.527 182.113 165.41C183.066 166.285 183.566 167.438 183.613 168.867H180.93C180.898 168.141 180.648 167.543 180.18 167.074C179.719 166.605 179.129 166.371 178.41 166.371C177.488 166.371 176.777 166.707 176.277 167.379C175.777 168.043 175.523 169.055 175.516 170.414V170.871C175.516 172.246 175.762 173.273 176.254 173.953C176.754 174.625 177.473 174.961 178.41 174.961ZM192.402 166.922C192.027 166.859 191.641 166.828 191.242 166.828C189.938 166.828 189.059 167.328 188.605 168.328V177H185.758V164.32H188.477L188.547 165.738C189.234 164.637 190.188 164.086 191.406 164.086C191.812 164.086 192.148 164.141 192.414 164.25L192.402 166.922ZM199.551 177.234C197.746 177.234 196.281 176.668 195.156 175.535C194.039 174.395 193.48 172.879 193.48 170.988V170.637C193.48 169.371 193.723 168.242 194.207 167.25C194.699 166.25 195.387 165.473 196.27 164.918C197.152 164.363 198.137 164.086 199.223 164.086C200.949 164.086 202.281 164.637 203.219 165.738C204.164 166.84 204.637 168.398 204.637 170.414V171.562H196.352C196.438 172.609 196.785 173.438 197.395 174.047C198.012 174.656 198.785 174.961 199.715 174.961C201.02 174.961 202.082 174.434 202.902 173.379L204.438 174.844C203.93 175.602 203.25 176.191 202.398 176.613C201.555 177.027 200.605 177.234 199.551 177.234ZM199.211 166.371C198.43 166.371 197.797 166.645 197.312 167.191C196.836 167.738 196.531 168.5 196.398 169.477H201.824V169.266C201.762 168.312 201.508 167.594 201.062 167.109C200.617 166.617 200 166.371 199.211 166.371ZM214.434 177C214.309 176.758 214.199 176.363 214.105 175.816C213.199 176.762 212.09 177.234 210.777 177.234C209.504 177.234 208.465 176.871 207.66 176.145C206.855 175.418 206.453 174.52 206.453 173.449C206.453 172.098 206.953 171.062 207.953 170.344C208.961 169.617 210.398 169.254 212.266 169.254H214.012V168.422C214.012 167.766 213.828 167.242 213.461 166.852C213.094 166.453 212.535 166.254 211.785 166.254C211.137 166.254 210.605 166.418 210.191 166.746C209.777 167.066 209.57 167.477 209.57 167.977H206.723C206.723 167.281 206.953 166.633 207.414 166.031C207.875 165.422 208.5 164.945 209.289 164.602C210.086 164.258 210.973 164.086 211.949 164.086C213.434 164.086 214.617 164.461 215.5 165.211C216.383 165.953 216.836 167 216.859 168.352V174.07C216.859 175.211 217.02 176.121 217.34 176.801V177H214.434ZM211.305 174.949C211.867 174.949 212.395 174.812 212.887 174.539C213.387 174.266 213.762 173.898 214.012 173.438V171.047H212.477C211.422 171.047 210.629 171.23 210.098 171.598C209.566 171.965 209.301 172.484 209.301 173.156C209.301 173.703 209.48 174.141 209.84 174.469C210.207 174.789 210.695 174.949 211.305 174.949ZM223.41 161.238V164.32H225.648V166.43H223.41V173.508C223.41 173.992 223.504 174.344 223.691 174.562C223.887 174.773 224.23 174.879 224.723 174.879C225.051 174.879 225.383 174.84 225.719 174.762V176.965C225.07 177.145 224.445 177.234 223.844 177.234C221.656 177.234 220.562 176.027 220.562 173.613V166.43H218.477V164.32H220.562V161.238H223.41ZM230.863 177H228.016V164.32H230.863V177ZM227.84 161.027C227.84 160.59 227.977 160.227 228.25 159.938C228.531 159.648 228.93 159.504 229.445 159.504C229.961 159.504 230.359 159.648 230.641 159.938C230.922 160.227 231.062 160.59 231.062 161.027C231.062 161.457 230.922 161.816 230.641 162.105C230.359 162.387 229.961 162.527 229.445 162.527C228.93 162.527 228.531 162.387 228.25 162.105C227.977 161.816 227.84 161.457 227.84 161.027ZM236.617 164.32L236.699 165.785C237.637 164.652 238.867 164.086 240.391 164.086C243.031 164.086 244.375 165.598 244.422 168.621V177H241.574V168.785C241.574 167.98 241.398 167.387 241.047 167.004C240.703 166.613 240.137 166.418 239.348 166.418C238.199 166.418 237.344 166.938 236.781 167.977V177H233.934V164.32H236.617ZM246.836 170.566C246.836 168.598 247.297 167.027 248.219 165.855C249.148 164.676 250.379 164.086 251.91 164.086C253.355 164.086 254.492 164.59 255.32 165.598L255.449 164.32H258.016V176.613C258.016 178.277 257.496 179.59 256.457 180.551C255.426 181.512 254.031 181.992 252.273 181.992C251.344 181.992 250.434 181.797 249.543 181.406C248.66 181.023 247.988 180.52 247.527 179.895L248.875 178.184C249.75 179.223 250.828 179.742 252.109 179.742C253.055 179.742 253.801 179.484 254.348 178.969C254.895 178.461 255.168 177.711 255.168 176.719V175.863C254.348 176.777 253.254 177.234 251.887 177.234C250.402 177.234 249.188 176.645 248.242 175.465C247.305 174.285 246.836 172.652 246.836 170.566ZM249.672 170.812C249.672 172.086 249.93 173.09 250.445 173.824C250.969 174.551 251.691 174.914 252.613 174.914C253.762 174.914 254.613 174.422 255.168 173.438V167.859C254.629 166.898 253.785 166.418 252.637 166.418C251.699 166.418 250.969 166.789 250.445 167.531C249.93 168.273 249.672 169.367 249.672 170.812ZM278.828 162.328H273.508V177H270.566V162.328H265.293V159.938H278.828V162.328ZM291.379 173.074L293.395 164.32H296.172L292.715 177H290.371L287.652 168.293L284.98 177H282.637L279.168 164.32H281.945L283.996 172.98L286.598 164.32H288.742L291.379 173.074ZM301.105 177H298.258V164.32H301.105V177ZM298.082 161.027C298.082 160.59 298.219 160.227 298.492 159.938C298.773 159.648 299.172 159.504 299.688 159.504C300.203 159.504 300.602 159.648 300.883 159.938C301.164 160.227 301.305 160.59 301.305 161.027C301.305 161.457 301.164 161.816 300.883 162.105C300.602 162.387 300.203 162.527 299.688 162.527C299.172 162.527 298.773 162.387 298.492 162.105C298.219 161.816 298.082 161.457 298.082 161.027ZM307.785 161.238V164.32H310.023V166.43H307.785V173.508C307.785 173.992 307.879 174.344 308.066 174.562C308.262 174.773 308.605 174.879 309.098 174.879C309.426 174.879 309.758 174.84 310.094 174.762V176.965C309.445 177.145 308.82 177.234 308.219 177.234C306.031 177.234 304.938 176.027 304.938 173.613V166.43H302.852V164.32H304.938V161.238H307.785ZM315.777 161.238V164.32H318.016V166.43H315.777V173.508C315.777 173.992 315.871 174.344 316.059 174.562C316.254 174.773 316.598 174.879 317.09 174.879C317.418 174.879 317.75 174.84 318.086 174.762V176.965C317.438 177.145 316.812 177.234 316.211 177.234C314.023 177.234 312.93 176.027 312.93 173.613V166.43H310.844V164.32H312.93V161.238H315.777ZM325.785 177.234C323.98 177.234 322.516 176.668 321.391 175.535C320.273 174.395 319.715 172.879 319.715 170.988V170.637C319.715 169.371 319.957 168.242 320.441 167.25C320.934 166.25 321.621 165.473 322.504 164.918C323.387 164.363 324.371 164.086 325.457 164.086C327.184 164.086 328.516 164.637 329.453 165.738C330.398 166.84 330.871 168.398 330.871 170.414V171.562H322.586C322.672 172.609 323.02 173.438 323.629 174.047C324.246 174.656 325.02 174.961 325.949 174.961C327.254 174.961 328.316 174.434 329.137 173.379L330.672 174.844C330.164 175.602 329.484 176.191 328.633 176.613C327.789 177.027 326.84 177.234 325.785 177.234ZM325.445 166.371C324.664 166.371 324.031 166.645 323.547 167.191C323.07 167.738 322.766 168.5 322.633 169.477H328.059V169.266C327.996 168.312 327.742 167.594 327.297 167.109C326.852 166.617 326.234 166.371 325.445 166.371ZM339.73 166.922C339.355 166.859 338.969 166.828 338.57 166.828C337.266 166.828 336.387 167.328 335.934 168.328V177H333.086V164.32H335.805L335.875 165.738C336.562 164.637 337.516 164.086 338.734 164.086C339.141 164.086 339.477 164.141 339.742 164.25L339.73 166.922ZM342.309 165L340.855 164.098C341.559 163.074 341.922 161.992 341.945 160.852V159H344.441V160.617C344.441 161.422 344.234 162.234 343.82 163.055C343.414 163.867 342.91 164.516 342.309 165ZM351.309 173.555C351.309 173.047 351.098 172.66 350.676 172.395C350.262 172.129 349.57 171.895 348.602 171.691C347.633 171.488 346.824 171.23 346.176 170.918C344.754 170.23 344.043 169.234 344.043 167.93C344.043 166.836 344.504 165.922 345.426 165.188C346.348 164.453 347.52 164.086 348.941 164.086C350.457 164.086 351.68 164.461 352.609 165.211C353.547 165.961 354.016 166.934 354.016 168.129H351.168C351.168 167.582 350.965 167.129 350.559 166.77C350.152 166.402 349.613 166.219 348.941 166.219C348.316 166.219 347.805 166.363 347.406 166.652C347.016 166.941 346.82 167.328 346.82 167.812C346.82 168.25 347.004 168.59 347.371 168.832C347.738 169.074 348.48 169.32 349.598 169.57C350.715 169.812 351.59 170.105 352.223 170.449C352.863 170.785 353.336 171.191 353.641 171.668C353.953 172.145 354.109 172.723 354.109 173.402C354.109 174.543 353.637 175.469 352.691 176.18C351.746 176.883 350.508 177.234 348.977 177.234C347.938 177.234 347.012 177.047 346.199 176.672C345.387 176.297 344.754 175.781 344.301 175.125C343.848 174.469 343.621 173.762 343.621 173.004H346.387C346.426 173.676 346.68 174.195 347.148 174.562C347.617 174.922 348.238 175.102 349.012 175.102C349.762 175.102 350.332 174.961 350.723 174.68C351.113 174.391 351.309 174.016 351.309 173.555ZM362.852 177V159.938H367.891C369.398 159.938 370.734 160.273 371.898 160.945C373.07 161.617 373.977 162.57 374.617 163.805C375.258 165.039 375.578 166.453 375.578 168.047V168.902C375.578 170.52 375.254 171.941 374.605 173.168C373.965 174.395 373.047 175.34 371.852 176.004C370.664 176.668 369.301 177 367.762 177H362.852ZM365.816 162.328V174.633H367.75C369.305 174.633 370.496 174.148 371.324 173.18C372.16 172.203 372.586 170.805 372.602 168.984V168.035C372.602 166.184 372.199 164.77 371.395 163.793C370.59 162.816 369.422 162.328 367.891 162.328H365.816ZM383.84 177.234C382.035 177.234 380.57 176.668 379.445 175.535C378.328 174.395 377.77 172.879 377.77 170.988V170.637C377.77 169.371 378.012 168.242 378.496 167.25C378.988 166.25 379.676 165.473 380.559 164.918C381.441 164.363 382.426 164.086 383.512 164.086C385.238 164.086 386.57 164.637 387.508 165.738C388.453 166.84 388.926 168.398 388.926 170.414V171.562H380.641C380.727 172.609 381.074 173.438 381.684 174.047C382.301 174.656 383.074 174.961 384.004 174.961C385.309 174.961 386.371 174.434 387.191 173.379L388.727 174.844C388.219 175.602 387.539 176.191 386.688 176.613C385.844 177.027 384.895 177.234 383.84 177.234ZM383.5 166.371C382.719 166.371 382.086 166.645 381.602 167.191C381.125 167.738 380.82 168.5 380.688 169.477H386.113V169.266C386.051 168.312 385.797 167.594 385.352 167.109C384.906 166.617 384.289 166.371 383.5 166.371ZM398.254 173.555C398.254 173.047 398.043 172.66 397.621 172.395C397.207 172.129 396.516 171.895 395.547 171.691C394.578 171.488 393.77 171.23 393.121 170.918C391.699 170.23 390.988 169.234 390.988 167.93C390.988 166.836 391.449 165.922 392.371 165.188C393.293 164.453 394.465 164.086 395.887 164.086C397.402 164.086 398.625 164.461 399.555 165.211C400.492 165.961 400.961 166.934 400.961 168.129H398.113C398.113 167.582 397.91 167.129 397.504 166.77C397.098 166.402 396.559 166.219 395.887 166.219C395.262 166.219 394.75 166.363 394.352 166.652C393.961 166.941 393.766 167.328 393.766 167.812C393.766 168.25 393.949 168.59 394.316 168.832C394.684 169.074 395.426 169.32 396.543 169.57C397.66 169.812 398.535 170.105 399.168 170.449C399.809 170.785 400.281 171.191 400.586 171.668C400.898 172.145 401.055 172.723 401.055 173.402C401.055 174.543 400.582 175.469 399.637 176.18C398.691 176.883 397.453 177.234 395.922 177.234C394.883 177.234 393.957 177.047 393.145 176.672C392.332 176.297 391.699 175.781 391.246 175.125C390.793 174.469 390.566 173.762 390.566 173.004H393.332C393.371 173.676 393.625 174.195 394.094 174.562C394.562 174.922 395.184 175.102 395.957 175.102C396.707 175.102 397.277 174.961 397.668 174.68C398.059 174.391 398.254 174.016 398.254 173.555ZM406.574 177H403.727V164.32H406.574V177ZM403.551 161.027C403.551 160.59 403.688 160.227 403.961 159.938C404.242 159.648 404.641 159.504 405.156 159.504C405.672 159.504 406.07 159.648 406.352 159.938C406.633 160.227 406.773 160.59 406.773 161.027C406.773 161.457 406.633 161.816 406.352 162.105C406.07 162.387 405.672 162.527 405.156 162.527C404.641 162.527 404.242 162.387 403.961 162.105C403.688 161.816 403.551 161.457 403.551 161.027ZM409.188 170.566C409.188 168.598 409.648 167.027 410.57 165.855C411.5 164.676 412.73 164.086 414.262 164.086C415.707 164.086 416.844 164.59 417.672 165.598L417.801 164.32H420.367V176.613C420.367 178.277 419.848 179.59 418.809 180.551C417.777 181.512 416.383 181.992 414.625 181.992C413.695 181.992 412.785 181.797 411.895 181.406C411.012 181.023 410.34 180.52 409.879 179.895L411.227 178.184C412.102 179.223 413.18 179.742 414.461 179.742C415.406 179.742 416.152 179.484 416.699 178.969C417.246 178.461 417.52 177.711 417.52 176.719V175.863C416.699 176.777 415.605 177.234 414.238 177.234C412.754 177.234 411.539 176.645 410.594 175.465C409.656 174.285 409.188 172.652 409.188 170.566ZM412.023 170.812C412.023 172.086 412.281 173.09 412.797 173.824C413.32 174.551 414.043 174.914 414.965 174.914C416.113 174.914 416.965 174.422 417.52 173.438V167.859C416.98 166.898 416.137 166.418 414.988 166.418C414.051 166.418 413.32 166.789 412.797 167.531C412.281 168.273 412.023 169.367 412.023 170.812ZM425.945 164.32L426.027 165.785C426.965 164.652 428.195 164.086 429.719 164.086C432.359 164.086 433.703 165.598 433.75 168.621V177H430.902V168.785C430.902 167.98 430.727 167.387 430.375 167.004C430.031 166.613 429.465 166.418 428.676 166.418C427.527 166.418 426.672 166.938 426.109 167.977V177H423.262V164.32H425.945ZM451.832 172.605C451.832 171.855 451.566 171.277 451.035 170.871C450.512 170.465 449.562 170.055 448.188 169.641C446.812 169.227 445.719 168.766 444.906 168.258C443.352 167.281 442.574 166.008 442.574 164.438C442.574 163.062 443.133 161.93 444.25 161.039C445.375 160.148 446.832 159.703 448.621 159.703C449.809 159.703 450.867 159.922 451.797 160.359C452.727 160.797 453.457 161.422 453.988 162.234C454.52 163.039 454.785 163.934 454.785 164.918H451.832C451.832 164.027 451.551 163.332 450.988 162.832C450.434 162.324 449.637 162.07 448.598 162.07C447.629 162.07 446.875 162.277 446.336 162.691C445.805 163.105 445.539 163.684 445.539 164.426C445.539 165.051 445.828 165.574 446.406 165.996C446.984 166.41 447.938 166.816 449.266 167.215C450.594 167.605 451.66 168.055 452.465 168.562C453.27 169.062 453.859 169.641 454.234 170.297C454.609 170.945 454.797 171.707 454.797 172.582C454.797 174.004 454.25 175.137 453.156 175.98C452.07 176.816 450.594 177.234 448.727 177.234C447.492 177.234 446.355 177.008 445.316 176.555C444.285 176.094 443.48 175.461 442.902 174.656C442.332 173.852 442.047 172.914 442.047 171.844H445.012C445.012 172.812 445.332 173.562 445.973 174.094C446.613 174.625 447.531 174.891 448.727 174.891C449.758 174.891 450.531 174.684 451.047 174.27C451.57 173.848 451.832 173.293 451.832 172.605ZM461.559 172.922L464.137 164.32H467.172L462.133 178.922C461.359 181.055 460.047 182.121 458.195 182.121C457.781 182.121 457.324 182.051 456.824 181.91V179.707L457.363 179.742C458.082 179.742 458.621 179.609 458.98 179.344C459.348 179.086 459.637 178.648 459.848 178.031L460.258 176.941L455.805 164.32H458.875L461.559 172.922ZM475.926 173.555C475.926 173.047 475.715 172.66 475.293 172.395C474.879 172.129 474.188 171.895 473.219 171.691C472.25 171.488 471.441 171.23 470.793 170.918C469.371 170.23 468.66 169.234 468.66 167.93C468.66 166.836 469.121 165.922 470.043 165.188C470.965 164.453 472.137 164.086 473.559 164.086C475.074 164.086 476.297 164.461 477.227 165.211C478.164 165.961 478.633 166.934 478.633 168.129H475.785C475.785 167.582 475.582 167.129 475.176 166.77C474.77 166.402 474.23 166.219 473.559 166.219C472.934 166.219 472.422 166.363 472.023 166.652C471.633 166.941 471.438 167.328 471.438 167.812C471.438 168.25 471.621 168.59 471.988 168.832C472.355 169.074 473.098 169.32 474.215 169.57C475.332 169.812 476.207 170.105 476.84 170.449C477.48 170.785 477.953 171.191 478.258 171.668C478.57 172.145 478.727 172.723 478.727 173.402C478.727 174.543 478.254 175.469 477.309 176.18C476.363 176.883 475.125 177.234 473.594 177.234C472.555 177.234 471.629 177.047 470.816 176.672C470.004 176.297 469.371 175.781 468.918 175.125C468.465 174.469 468.238 173.762 468.238 173.004H471.004C471.043 173.676 471.297 174.195 471.766 174.562C472.234 174.922 472.855 175.102 473.629 175.102C474.379 175.102 474.949 174.961 475.34 174.68C475.73 174.391 475.926 174.016 475.926 173.555ZM484.785 161.238V164.32H487.023V166.43H484.785V173.508C484.785 173.992 484.879 174.344 485.066 174.562C485.262 174.773 485.605 174.879 486.098 174.879C486.426 174.879 486.758 174.84 487.094 174.762V176.965C486.445 177.145 485.82 177.234 485.219 177.234C483.031 177.234 481.938 176.027 481.938 173.613V166.43H479.852V164.32H481.938V161.238H484.785ZM494.793 177.234C492.988 177.234 491.523 176.668 490.398 175.535C489.281 174.395 488.723 172.879 488.723 170.988V170.637C488.723 169.371 488.965 168.242 489.449 167.25C489.941 166.25 490.629 165.473 491.512 164.918C492.395 164.363 493.379 164.086 494.465 164.086C496.191 164.086 497.523 164.637 498.461 165.738C499.406 166.84 499.879 168.398 499.879 170.414V171.562H491.594C491.68 172.609 492.027 173.438 492.637 174.047C493.254 174.656 494.027 174.961 494.957 174.961C496.262 174.961 497.324 174.434 498.145 173.379L499.68 174.844C499.172 175.602 498.492 176.191 497.641 176.613C496.797 177.027 495.848 177.234 494.793 177.234ZM494.453 166.371C493.672 166.371 493.039 166.645 492.555 167.191C492.078 167.738 491.773 168.5 491.641 169.477H497.066V169.266C497.004 168.312 496.75 167.594 496.305 167.109C495.859 166.617 495.242 166.371 494.453 166.371ZM504.777 164.32L504.859 165.645C505.75 164.605 506.969 164.086 508.516 164.086C510.211 164.086 511.371 164.734 511.996 166.031C512.918 164.734 514.215 164.086 515.887 164.086C517.285 164.086 518.324 164.473 519.004 165.246C519.691 166.02 520.043 167.16 520.059 168.668V177H517.211V168.75C517.211 167.945 517.035 167.355 516.684 166.98C516.332 166.605 515.75 166.418 514.938 166.418C514.289 166.418 513.758 166.594 513.344 166.945C512.938 167.289 512.652 167.742 512.488 168.305L512.5 177H509.652V168.656C509.613 167.164 508.852 166.418 507.367 166.418C506.227 166.418 505.418 166.883 504.941 167.812V177H502.094V164.32H504.777ZM145.035 205C144.91 204.758 144.801 204.363 144.707 203.816C143.801 204.762 142.691 205.234 141.379 205.234C140.105 205.234 139.066 204.871 138.262 204.145C137.457 203.418 137.055 202.52 137.055 201.449C137.055 200.098 137.555 199.062 138.555 198.344C139.562 197.617 141 197.254 142.867 197.254H144.613V196.422C144.613 195.766 144.43 195.242 144.062 194.852C143.695 194.453 143.137 194.254 142.387 194.254C141.738 194.254 141.207 194.418 140.793 194.746C140.379 195.066 140.172 195.477 140.172 195.977H137.324C137.324 195.281 137.555 194.633 138.016 194.031C138.477 193.422 139.102 192.945 139.891 192.602C140.688 192.258 141.574 192.086 142.551 192.086C144.035 192.086 145.219 192.461 146.102 193.211C146.984 193.953 147.438 195 147.461 196.352V202.07C147.461 203.211 147.621 204.121 147.941 204.801V205H145.035ZM141.906 202.949C142.469 202.949 142.996 202.812 143.488 202.539C143.988 202.266 144.363 201.898 144.613 201.438V199.047H143.078C142.023 199.047 141.23 199.23 140.699 199.598C140.168 199.965 139.902 200.484 139.902 201.156C139.902 201.703 140.082 202.141 140.441 202.469C140.809 202.789 141.297 202.949 141.906 202.949ZM153.086 192.32L153.168 193.785C154.105 192.652 155.336 192.086 156.859 192.086C159.5 192.086 160.844 193.598 160.891 196.621V205H158.043V196.785C158.043 195.98 157.867 195.387 157.516 195.004C157.172 194.613 156.605 194.418 155.816 194.418C154.668 194.418 153.812 194.938 153.25 195.977V205H150.402V192.32H153.086ZM163.27 198.566C163.27 196.613 163.723 195.047 164.629 193.867C165.535 192.68 166.75 192.086 168.273 192.086C169.617 192.086 170.703 192.555 171.531 193.492V187H174.379V205H171.801L171.66 203.688C170.809 204.719 169.672 205.234 168.25 205.234C166.766 205.234 165.562 204.637 164.641 203.441C163.727 202.246 163.27 200.621 163.27 198.566ZM166.117 198.812C166.117 200.102 166.363 201.109 166.855 201.836C167.355 202.555 168.062 202.914 168.977 202.914C170.141 202.914 170.992 202.395 171.531 201.355V195.941C171.008 194.926 170.164 194.418 169 194.418C168.078 194.418 167.367 194.785 166.867 195.52C166.367 196.246 166.117 197.344 166.117 198.812ZM188.535 202.961C189.246 202.961 189.836 202.754 190.305 202.34C190.773 201.926 191.023 201.414 191.055 200.805H193.738C193.707 201.594 193.461 202.332 193 203.02C192.539 203.699 191.914 204.238 191.125 204.637C190.336 205.035 189.484 205.234 188.57 205.234C186.797 205.234 185.391 204.66 184.352 203.512C183.312 202.363 182.793 200.777 182.793 198.754V198.461C182.793 196.531 183.309 194.988 184.34 193.832C185.371 192.668 186.777 192.086 188.559 192.086C190.066 192.086 191.293 192.527 192.238 193.41C193.191 194.285 193.691 195.438 193.738 196.867H191.055C191.023 196.141 190.773 195.543 190.305 195.074C189.844 194.605 189.254 194.371 188.535 194.371C187.613 194.371 186.902 194.707 186.402 195.379C185.902 196.043 185.648 197.055 185.641 198.414V198.871C185.641 200.246 185.887 201.273 186.379 201.953C186.879 202.625 187.598 202.961 188.535 202.961ZM195.355 198.543C195.355 197.301 195.602 196.184 196.094 195.191C196.586 194.191 197.277 193.426 198.168 192.895C199.059 192.355 200.082 192.086 201.238 192.086C202.949 192.086 204.336 192.637 205.398 193.738C206.469 194.84 207.047 196.301 207.133 198.121L207.145 198.789C207.145 200.039 206.902 201.156 206.418 202.141C205.941 203.125 205.254 203.887 204.355 204.426C203.465 204.965 202.434 205.234 201.262 205.234C199.473 205.234 198.039 204.641 196.961 203.453C195.891 202.258 195.355 200.668 195.355 198.684V198.543ZM198.203 198.789C198.203 200.094 198.473 201.117 199.012 201.859C199.551 202.594 200.301 202.961 201.262 202.961C202.223 202.961 202.969 202.586 203.5 201.836C204.039 201.086 204.309 199.988 204.309 198.543C204.309 197.262 204.031 196.246 203.477 195.496C202.93 194.746 202.184 194.371 201.238 194.371C200.309 194.371 199.57 194.742 199.023 195.484C198.477 196.219 198.203 197.32 198.203 198.789ZM212.23 192.32L212.312 193.645C213.203 192.605 214.422 192.086 215.969 192.086C217.664 192.086 218.824 192.734 219.449 194.031C220.371 192.734 221.668 192.086 223.34 192.086C224.738 192.086 225.777 192.473 226.457 193.246C227.145 194.02 227.496 195.16 227.512 196.668V205H224.664V196.75C224.664 195.945 224.488 195.355 224.137 194.98C223.785 194.605 223.203 194.418 222.391 194.418C221.742 194.418 221.211 194.594 220.797 194.945C220.391 195.289 220.105 195.742 219.941 196.305L219.953 205H217.105V196.656C217.066 195.164 216.305 194.418 214.82 194.418C213.68 194.418 212.871 194.883 212.395 195.812V205H209.547V192.32H212.23ZM241.539 198.789C241.539 200.75 241.094 202.316 240.203 203.488C239.312 204.652 238.117 205.234 236.617 205.234C235.227 205.234 234.113 204.777 233.277 203.863V209.875H230.43V192.32H233.055L233.172 193.609C234.008 192.594 235.145 192.086 236.582 192.086C238.129 192.086 239.34 192.664 240.215 193.82C241.098 194.969 241.539 196.566 241.539 198.613V198.789ZM238.703 198.543C238.703 197.277 238.449 196.273 237.941 195.531C237.441 194.789 236.723 194.418 235.785 194.418C234.621 194.418 233.785 194.898 233.277 195.859V201.484C233.793 202.469 234.637 202.961 235.809 202.961C236.715 202.961 237.422 202.598 237.93 201.871C238.445 201.137 238.703 200.027 238.703 198.543ZM243.426 198.543C243.426 197.301 243.672 196.184 244.164 195.191C244.656 194.191 245.348 193.426 246.238 192.895C247.129 192.355 248.152 192.086 249.309 192.086C251.02 192.086 252.406 192.637 253.469 193.738C254.539 194.84 255.117 196.301 255.203 198.121L255.215 198.789C255.215 200.039 254.973 201.156 254.488 202.141C254.012 203.125 253.324 203.887 252.426 204.426C251.535 204.965 250.504 205.234 249.332 205.234C247.543 205.234 246.109 204.641 245.031 203.453C243.961 202.258 243.426 200.668 243.426 198.684V198.543ZM246.273 198.789C246.273 200.094 246.543 201.117 247.082 201.859C247.621 202.594 248.371 202.961 249.332 202.961C250.293 202.961 251.039 202.586 251.57 201.836C252.109 201.086 252.379 199.988 252.379 198.543C252.379 197.262 252.102 196.246 251.547 195.496C251 194.746 250.254 194.371 249.309 194.371C248.379 194.371 247.641 194.742 247.094 195.484C246.547 196.219 246.273 197.32 246.273 198.789ZM260.266 192.32L260.348 193.785C261.285 192.652 262.516 192.086 264.039 192.086C266.68 192.086 268.023 193.598 268.07 196.621V205H265.223V196.785C265.223 195.98 265.047 195.387 264.695 195.004C264.352 194.613 263.785 194.418 262.996 194.418C261.848 194.418 260.992 194.938 260.43 195.977V205H257.582V192.32H260.266ZM276.566 205.234C274.762 205.234 273.297 204.668 272.172 203.535C271.055 202.395 270.496 200.879 270.496 198.988V198.637C270.496 197.371 270.738 196.242 271.223 195.25C271.715 194.25 272.402 193.473 273.285 192.918C274.168 192.363 275.152 192.086 276.238 192.086C277.965 192.086 279.297 192.637 280.234 193.738C281.18 194.84 281.652 196.398 281.652 198.414V199.562H273.367C273.453 200.609 273.801 201.438 274.41 202.047C275.027 202.656 275.801 202.961 276.73 202.961C278.035 202.961 279.098 202.434 279.918 201.379L281.453 202.844C280.945 203.602 280.266 204.191 279.414 204.613C278.57 205.027 277.621 205.234 276.566 205.234ZM276.227 194.371C275.445 194.371 274.812 194.645 274.328 195.191C273.852 195.738 273.547 196.5 273.414 197.477H278.84V197.266C278.777 196.312 278.523 195.594 278.078 195.109C277.633 194.617 277.016 194.371 276.227 194.371ZM286.516 192.32L286.598 193.785C287.535 192.652 288.766 192.086 290.289 192.086C292.93 192.086 294.273 193.598 294.32 196.621V205H291.473V196.785C291.473 195.98 291.297 195.387 290.945 195.004C290.602 194.613 290.035 194.418 289.246 194.418C288.098 194.418 287.242 194.938 286.68 195.977V205H283.832V192.32H286.516ZM300.801 189.238V192.32H303.039V194.43H300.801V201.508C300.801 201.992 300.895 202.344 301.082 202.562C301.277 202.773 301.621 202.879 302.113 202.879C302.441 202.879 302.773 202.84 303.109 202.762V204.965C302.461 205.145 301.836 205.234 301.234 205.234C299.047 205.234 297.953 204.027 297.953 201.613V194.43H295.867V192.32H297.953V189.238H300.801ZM312.332 201.555C312.332 201.047 312.121 200.66 311.699 200.395C311.285 200.129 310.594 199.895 309.625 199.691C308.656 199.488 307.848 199.23 307.199 198.918C305.777 198.23 305.066 197.234 305.066 195.93C305.066 194.836 305.527 193.922 306.449 193.188C307.371 192.453 308.543 192.086 309.965 192.086C311.48 192.086 312.703 192.461 313.633 193.211C314.57 193.961 315.039 194.934 315.039 196.129H312.191C312.191 195.582 311.988 195.129 311.582 194.77C311.176 194.402 310.637 194.219 309.965 194.219C309.34 194.219 308.828 194.363 308.43 194.652C308.039 194.941 307.844 195.328 307.844 195.812C307.844 196.25 308.027 196.59 308.395 196.832C308.762 197.074 309.504 197.32 310.621 197.57C311.738 197.812 312.613 198.105 313.246 198.449C313.887 198.785 314.359 199.191 314.664 199.668C314.977 200.145 315.133 200.723 315.133 201.402C315.133 202.543 314.66 203.469 313.715 204.18C312.77 204.883 311.531 205.234 310 205.234C308.961 205.234 308.035 205.047 307.223 204.672C306.41 204.297 305.777 203.781 305.324 203.125C304.871 202.469 304.645 201.762 304.645 201.004H307.41C307.449 201.676 307.703 202.195 308.172 202.562C308.641 202.922 309.262 203.102 310.035 203.102C310.785 203.102 311.355 202.961 311.746 202.68C312.137 202.391 312.332 202.016 312.332 201.555Z" fill="#7856FF"/>
</svg>
